{"asset":{"generator":"glTF-Transform v4.0.2","version":"2.0","extras":{"author":"Alan Zimmerman (https://sketchfab.com/nenjo)","license":"CC-BY-4.0 (http://creativecommons.org/licenses/by/4.0/)","source":"https://sketchfab.com/3d-models/low-poly-earth-5665f720773c41198116a3585dfae3af","title":"Low-Poly Earth"}},"accessors":[{"type":"VEC3","componentType":5126,"count":5382,"max":[35.2338752746582,37.870521545410156,41.9073371887207],"min":[-18.97106170654297,-40.53580856323242,-41.77427673339844],"bufferView":0,"byteOffset":0},{"type":"VEC3","componentType":5126,"count":5382,"bufferView":0,"byteOffset":12},{"type":"VEC2","componentType":5126,"count":5382,"bufferView":0,"byteOffset":24},{"type":"SCALAR","componentType":5125,"count":26988,"bufferView":1,"byteOffset":0},{"type":"SCALAR","componentType":5125,"count":744,"bufferView":1,"byteOffset":107952},{"type":"SCALAR","componentType":5125,"count":28104,"bufferView":1,"byteOffset":110928},{"type":"SCALAR","componentType":5125,"count":65532,"bufferView":1,"byteOffset":223344},{"type":"SCALAR","componentType":5125,"count":65532,"bufferView":1,"byteOffset":485472},{"type":"SCALAR","componentType":5125,"count":65532,"bufferView":1,"byteOffset":747600},{"type":"SCALAR","componentType":5125,"count":65532,"bufferView":1,"byteOffset":1009728},{"type":"SCALAR","componentType":5125,"count":65532,"bufferView":1,"byteOffset":1271856},{"type":"SCALAR","componentType":5125,"count":65535,"bufferView":1,"byteOffset":1533984},{"type":"SCALAR","componentType":5125,"count":65532,"bufferView":1,"byteOffset":1796124},{"type":"SCALAR","componentType":5125,"count":65532,"bufferView":1,"byteOffset":2058252},{"type":"SCALAR","componentType":5125,"count":65532,"bufferView":1,"byteOffset":2320380},{"type":"SCALAR","componentType":5125,"count":4224,"bufferView":1,"byteOffset":2582508},{"type":"VEC3","componentType":5126,"count":744,"max":[9.269569396972656,-3.89176082611084,41.895294189453125],"min":[-18.962491989135742,-20.53089141845703,34.74765396118164],"bufferView":2,"byteOffset":0},{"type":"VEC3","componentType":5126,"count":744,"bufferView":2,"byteOffset":12},{"type":"VEC2","componentType":5126,"count":744,"bufferView":2,"byteOffset":24},{"type":"VEC3","componentType":5126,"count":5084,"max":[42.05290222167969,42.03361129760742,42.07907485961914],"min":[-42.05741882324219,-42.07285690307617,-42.04186248779297],"bufferView":3,"byteOffset":0},{"type":"VEC3","componentType":5126,"count":5084,"bufferView":3,"byteOffset":12},{"type":"VEC2","componentType":5126,"count":5084,"bufferView":3,"byteOffset":24},{"type":"VEC3","componentType":5126,"count":65532,"max":[42.03078842163086,41.845008850097656,41.86140823364258],"min":[-40.56903839111328,-41.57350540161133,-42.31321716308594],"bufferView":4,"byteOffset":0},{"type":"VEC3","componentType":5126,"count":65532,"bufferView":4,"byteOffset":12},{"type":"VEC2","componentType":5126,"count":65532,"bufferView":4,"byteOffset":24},{"type":"VEC3","componentType":5126,"count":65532,"max":[41.79600524902344,41.87105941772461,41.94773483276367],"min":[-40.550926208496094,-41.57350540161133,-42.25303268432617],"bufferView":5,"byteOffset":0},{"type":"VEC3","componentType":5126,"count":65532,"bufferView":5,"byteOffset":12},{"type":"VEC2","componentType":5126,"count":65532,"bufferView":5,"byteOffset":24},{"type":"VEC3","componentType":5126,"count":65532,"max":[42.03078842163086,41.845008850097656,41.94773483276367],"min":[-40.36892318725586,-41.610721588134766,-42.161991119384766],"bufferView":6,"byteOffset":0},{"type":"VEC3","componentType":5126,"count":65532,"bufferView":6,"byteOffset":12},{"type":"VEC2","componentType":5126,"count":65532,"bufferView":6,"byteOffset":24},{"type":"VEC3","componentType":5126,"count":65532,"max":[39.39078903198242,41.67038345336914,41.94460678100586],"min":[-40.19358825683594,-41.610721588134766,-42.12710189819336],"bufferView":7,"byteOffset":0},{"type":"VEC3","componentType":5126,"count":65532,"bufferView":7,"byteOffset":12},{"type":"VEC2","componentType":5126,"count":65532,"bufferView":7,"byteOffset":24},{"type":"VEC3","componentType":5126,"count":65532,"max":[42.03078842163086,41.213836669921875,41.90717315673828],"min":[-34.800418853759766,-41.395233154296875,-42.31886291503906],"bufferView":8,"byteOffset":0},{"type":"VEC3","componentType":5126,"count":65532,"bufferView":8,"byteOffset":12},{"type":"VEC2","componentType":5126,"count":65532,"bufferView":8,"byteOffset":24},{"type":"VEC3","componentType":5126,"count":65534,"max":[41.47902297973633,40.23086166381836,41.90212631225586],"min":[-39.564964294433594,-41.395233154296875,-42.333011627197266],"bufferView":9,"byteOffset":0},{"type":"VEC3","componentType":5126,"count":65534,"bufferView":9,"byteOffset":12},{"type":"VEC2","componentType":5126,"count":65534,"bufferView":9,"byteOffset":24},{"type":"VEC3","componentType":5126,"count":65532,"max":[42.007259368896484,41.845008850097656,41.791160583496094],"min":[-36.702091217041016,-41.56719207763672,-42.333011627197266],"bufferView":10,"byteOffset":0},{"type":"VEC3","componentType":5126,"count":65532,"bufferView":10,"byteOffset":12},{"type":"VEC2","componentType":5126,"count":65532,"bufferView":10,"byteOffset":24},{"type":"VEC3","componentType":5126,"count":65532,"max":[41.99620056152344,41.40114974975586,41.90007019042969],"min":[-40.56903839111328,-41.376319885253906,-42.116878509521484],"bufferView":11,"byteOffset":0},{"type":"VEC3","componentType":5126,"count":65532,"bufferView":11,"byteOffset":12},{"type":"VEC2","componentType":5126,"count":65532,"bufferView":11,"byteOffset":24},{"type":"VEC3","componentType":5126,"count":65532,"max":[41.993408203125,41.07549285888672,41.94773483276367],"min":[-31.788742065429688,-41.16982650756836,-42.3035888671875],"bufferView":12,"byteOffset":0},{"type":"VEC3","componentType":5126,"count":65532,"bufferView":12,"byteOffset":12},{"type":"VEC2","componentType":5126,"count":65532,"bufferView":12,"byteOffset":24},{"type":"VEC3","componentType":5126,"count":4224,"max":[32.683658599853516,41.87105941772461,41.90496063232422],"min":[-40.56903839111328,-40.251686096191406,-42.06090545654297],"bufferView":13,"byteOffset":0},{"type":"VEC3","componentType":5126,"count":4224,"bufferView":13,"byteOffset":12},{"type":"VEC2","componentType":5126,"count":4224,"bufferView":13,"byteOffset":24}],"bufferViews":[{"buffer":0,"byteOffset":0,"byteLength":172224,"byteStride":32,"target":34962},{"buffer":0,"byteOffset":172224,"byteLength":2599404,"target":34963},{"buffer":0,"byteOffset":2771628,"byteLength":23808,"byteStride":32,"target":34962},{"buffer":0,"byteOffset":2795436,"byteLength":162688,"byteStride":32,"target":34962},{"buffer":0,"byteOffset":2958124,"byteLength":2097024,"byteStride":32,"target":34962},{"buffer":0,"byteOffset":5055148,"byteLength":2097024,"byteStride":32,"target":34962},{"buffer":0,"byteOffset":7152172,"byteLength":2097024,"byteStride":32,"target":34962},{"buffer":0,"byteOffset":9249196,"byteLength":2097024,"byteStride":32,"target":34962},{"buffer":0,"byteOffset":11346220,"byteLength":2097024,"byteStride":32,"target":34962},{"buffer":0,"byteOffset":13443244,"byteLength":2097088,"byteStride":32,"target":34962},{"buffer":0,"byteOffset":15540332,"byteLength":2097024,"byteStride":32,"target":34962},{"buffer":0,"byteOffset":17637356,"byteLength":2097024,"byteStride":32,"target":34962},{"buffer":0,"byteOffset":19734380,"byteLength":2097024,"byteStride":32,"target":34962},{"buffer":0,"byteOffset":21831404,"byteLength":135168,"byteStride":32,"target":34962}],"samplers":[{"magFilter":9729,"minFilter":9987,"wrapS":10497,"wrapT":10497}],"textures":[{"source":0,"sampler":0},{"source":1,"sampler":0}],"images":[{"mimeType":"image/jpeg","uri":"textures/Land_diffuse.jpeg"},{"mimeType":"image/jpeg","uri":"textures/Ocean_diffuse.jpeg"}],"buffers":[{"uri":"scene.bin","byteLength":21966572}],"materials":[{"name":"Snow","doubleSided":true,"pbrMetallicRoughness":{"metallicFactor":0},"extensions":{"KHR_materials_ior":{"ior":1000},"KHR_materials_specular":{"specularColorFactor":[0.05,0.05,0.05]}}},{"name":"Land","doubleSided":true,"pbrMetallicRoughness":{"metallicFactor":0,"baseColorTexture":{"index":0}},"extensions":{"KHR_materials_ior":{"ior":1000},"KHR_materials_specular":{"specularColorFactor":[0,0,0]}}},{"name":"Ocean","doubleSided":true,"pbrMetallicRoughness":{"metallicFactor":0,"baseColorTexture":{"index":1}},"extensions":{"KHR_materials_ior":{"ior":1000},"KHR_materials_specular":{"specularColorFactor":[0,0,0]}}}],"meshes":[{"name":"Object002.003_Snow_0","primitives":[{"attributes":{"NORMAL":1,"POSITION":0,"TEXCOORD_0":2},"mode":4,"material":0,"indices":3}]},{"name":"Object002.002_Land_0","primitives":[{"attributes":{"NORMAL":17,"POSITION":16,"TEXCOORD_0":18},"mode":4,"material":1,"indices":4}]},{"name":"ocean-surface_Ocean_0","primitives":[{"attributes":{"NORMAL":20,"POSITION":19,"TEXCOORD_0":21},"mode":4,"material":2,"indices":5}]},{"name":"Object002_Land_0","primitives":[{"attributes":{"NORMAL":23,"POSITION":22,"TEXCOORD_0":24},"mode":4,"material":1,"indices":6}]},{"name":"Object002_Land_0","primitives":[{"attributes":{"NORMAL":26,"POSITION":25,"TEXCOORD_0":27},"mode":4,"material":1,"indices":7}]},{"name":"Object002_Land_0","primitives":[{"attributes":{"NORMAL":29,"POSITION":28,"TEXCOORD_0":30},"mode":4,"material":1,"indices":8}]},{"name":"Object002_Land_0","primitives":[{"attributes":{"NORMAL":32,"POSITION":31,"TEXCOORD_0":33},"mode":4,"material":1,"indices":9}]},{"name":"Object002_Land_0","primitives":[{"attributes":{"NORMAL":35,"POSITION":34,"TEXCOORD_0":36},"mode":4,"material":1,"indices":10}]},{"name":"Object002_Land_0","primitives":[{"attributes":{"NORMAL":38,"POSITION":37,"TEXCOORD_0":39},"mode":4,"material":1,"indices":11}]},{"name":"Object002_Land_0","primitives":[{"attributes":{"NORMAL":41,"POSITION":40,"TEXCOORD_0":42},"mode":4,"material":1,"indices":12}]},{"name":"Object002_Land_0","primitives":[{"attributes":{"NORMAL":44,"POSITION":43,"TEXCOORD_0":45},"mode":4,"material":1,"indices":13}]},{"name":"Object002_Land_0","primitives":[{"attributes":{"NORMAL":47,"POSITION":46,"TEXCOORD_0":48},"mode":4,"material":1,"indices":14}]},{"name":"Object002_Land_0","primitives":[{"attributes":{"NORMAL":50,"POSITION":49,"TEXCOORD_0":51},"mode":4,"material":1,"indices":15}]}],"nodes":[{"name":"Sketchfab_model","rotation":[-0.7071067811865475,0,0,0.7071067811865476],"children":[1]},{"name":"04b5f162f216401dafd5a6b3274bc761.fbx","rotation":[0.7071067811865475,0,0,0.7071067811865476],"children":[2]},{"name":"RootNode","children":[3,5,7,10,13,16,19,21,32,35]},{"name":"Object002.003","translation":[0,-0.7884018421173096,0],"rotation":[-0.7071068387877038,0,0,0.7071067235853866],"scale":[100,100.00000000000001,100.00000000000001],"children":[4]},{"name":"Object002.003_Snow_0","mesh":0},{"name":"Object002.002","rotation":[-0.7071068387877038,0,0,0.7071067235853866],"scale":[100,100.00000000000001,100.00000000000001],"children":[6]},{"name":"Object002.002_Land_0","mesh":1},{"name":"Sun.003","translation":[-2975.057373046875,-1761.22705078125,-2415.943603515625],"rotation":[-0.7490532485950316,0,0,0.662509796734531],"scale":[100,100.00000000000001,100.00000000000001],"children":[8]},{"name":"Object_8","rotation":[0.7071067811865475,0,0,0.7071067811865476],"children":[9]},{"name":"Object_9"},{"name":"Sun.002","translation":[-2975.057373046875,-1761.22705078125,-2415.943603515625],"rotation":[0.07899108233297815,0.1054366418170972,-0.5015059575434302,0.8550644993347841],"scale":[100,99.99999237060548,99.99999237060548],"children":[11]},{"name":"Object_11","rotation":[0.7071067811865475,0,0,0.7071067811865476],"children":[12]},{"name":"Object_12"},{"name":"Sun.001","translation":[-4417.578125,-5069.7265625,3091.40625],"rotation":[0.9999999999999971,0,0,7.549789954891873e-8],"scale":[100,100.00000000000003,100.00000000000003],"children":[14]},{"name":"Object_14","rotation":[0.7071067811865475,0,0,0.7071067811865476],"children":[15]},{"name":"Object_15"},{"name":"Sun","translation":[-4417.578125,-5069.7265625,3091.40625],"rotation":[0.490619768886163,-0.33474456406254477,0.33308833570888985,0.732318564439921],"scale":[100.00000000000001,100.00000762939453,99.99999999999999],"children":[17]},{"name":"Object_17","rotation":[0.7071067811865475,0,0,0.7071067811865476],"children":[18]},{"name":"Object_18"},{"name":"ocean-surface","rotation":[-0.7071068387877038,0,0,0.7071067235853866],"scale":[100.06539916992188,100.06539916992189,100.06539916992189],"children":[20]},{"name":"ocean-surface_Ocean_0","mesh":2},{"name":"Object002","rotation":[-0.7071068387877038,0,0,0.7071067235853866],"scale":[100,100.00000000000001,100.00000000000001],"children":[22,23,24,25,26,27,28,29,30,31]},{"name":"Object002_Land_0","mesh":3},{"name":"Object002_Land_0","mesh":4},{"name":"Object002_Land_0","mesh":5},{"name":"Object002_Land_0","mesh":6},{"name":"Object002_Land_0","mesh":7},{"name":"Object002_Land_0","mesh":8},{"name":"Object002_Land_0","mesh":9},{"name":"Object002_Land_0","mesh":10},{"name":"Object002_Land_0","mesh":11},{"name":"Object002_Land_0","mesh":12},{"name":"Lamp","translation":[407.6245422363281,590.38623046875,-100.54539489746094],"rotation":[0.1690757056862664,0.755880374520583,-0.2721713326537732,0.5709474851882469],"scale":[100.00000762939453,100,99.99999999999999],"children":[33]},{"name":"Object_33","rotation":[0.7071067811865475,0,0,0.7071067811865476],"children":[34]},{"name":"Object_34"},{"name":"Camera","translation":[748.1131591796875,534.3665161132812,650.7639770507812],"rotation":[-0.21061137103817412,0.9052400710330734,-0.08928162597006073,0.35806711025951404],"scale":[100.00000000000003,99.99999999999999,100.00000000000004],"children":[36]},{"name":"Object_36"}],"scenes":[{"name":"Sketchfab_Scene","nodes":[0]}],"scene":0,"extensionsUsed":["KHR_materials_ior","KHR_materials_specular"]}